{
  "accessors": [
    {
      "bufferView": 2,
      "componentType": 5126,
      "count": 10656,
      "max": [
        1,
        0.91139698028564453,
        0.57535797357559204
      ],
      "min": [
        -1,
        -0.91139698028564453,
        -0.57535797357559204
      ],
      "type": "VEC3"
    },
    {
      "bufferView": 2,
      "byteOffset": 127872,
      "componentType": 5126,
      "count": 10656,
      "max": [
        1,
        1,
        1
      ],
      "min": [
        -1,
        -1,
        -0.99988675117492676
      ],
      "type": "VEC3"
    },
    {
      "bufferView": 3,
      "componentType": 5126,
      "count": 10656,
      "max": [
        1,
        1,
        0.99990099668502808,
        1
      ],
      "min": [
        -1,
        -1,
        -0.99989402294158936,
        -1
      ],
      "type": "VEC4"
    },
    {
      "bufferView": 1,
      "componentType": 5126,
      "count": 10656,
      "max": [
        0.99862897396087646,
        1.0001800060272217
      ],
      "min": [
        0.0021689999848604202,
        0.0030849999748170376
      ],
      "type": "VEC2"
    },
    {
      "bufferView": 0,
      "componentType": 5125,
      "count": 43830,
      "max": [
        10655
      ],
      "min": [
        0
      ],
      "type": "SCALAR"
    },
    {
      "bufferView": 2,
      "byteOffset": 255744,
      "componentType": 5126,
      "count": 55,
      "max": [
        0.41466799378395081,
        0.63679599761962891,
        0.30625501275062561
      ],
      "min": [
        0.29677599668502808,
        0.51933401823043823,
        0.28176200389862061
      ],
      "type": "VEC3"
    },
    {
      "bufferView": 2,
      "byteOffset": 256404,
      "componentType": 5126,
      "count": 55,
      "max": [
        0.6739351749420166,
        0.64374381303787231,
        0.99913090467453003
      ],
      "min": [
        -0.59663909673690796,
        -0.62047004699707031,
        0.73709505796432495
      ],
      "type": "VEC3"
    },
    {
      "bufferView": 3,
      "byteOffset": 170496,
      "componentType": 5126,
      "count": 55,
      "max": [
        0.9999769926071167,
        0.09083160012960434,
        0.5970500111579895,
        1
      ],
      "min": [
        0.73821800947189331,
        -0.087921403348445892,
        -0.6745610237121582,
        1
      ],
      "type": "VEC4"
    },
    {
      "bufferView": 1,
      "byteOffset": 85248,
      "componentType": 5126,
      "count": 55,
      "max": [
        0.63017499446868896,
        0.3146510124206543
      ],
      "min": [
        0.57173097133636475,
        0.25631201267242432
      ],
      "type": "VEC2"
    },
    {
      "bufferView": 0,
      "byteOffset": 175320,
      "componentType": 5125,
      "count": 270,
      "max": [
        54
      ],
      "min": [
        0
      ],
      "type": "SCALAR"
    }
  ],
  "asset": {
    "extras": {
      "author": "foor1o (https://sketchfab.com/foor1o)",
      "license": "CC-BY-4.0 (http://creativecommons.org/licenses/by/4.0/)",
      "source": "https://sketchfab.com/models/83bdd9464ea4497bb687259afc4d8ae8",
      "title": "HelmetConcept"
    },
    "generator": "Sketchfab-3.41.2",
    "version": "2.0"
  },
  "bufferViews": [
    {
      "buffer": 0,
      "byteLength": 176400,
      "byteOffset": 0,
      "name": "floatBufferViews",
      "target": 34963
    },
    {
      "buffer": 0,
      "byteLength": 85688,
      "byteOffset": 176400,
      "byteStride": 8,
      "name": "floatBufferViews",
      "target": 34962
    },
    {
      "buffer": 0,
      "byteLength": 257064,
      "byteOffset": 262088,
      "byteStride": 12,
      "name": "floatBufferViews",
      "target": 34962
    },
    {
      "buffer": 0,
      "byteLength": 171376,
      "byteOffset": 519152,
      "byteStride": 16,
      "name": "floatBufferViews",
      "target": 34962
    }
  ],
  "buffers": [
    {
      "byteLength": 690528,
      "uri": "scene.bin"
    }
  ],
  "images": [
    {
      "uri": "textures/LP_zlozone_lambert23SG1_baseColor.jpeg"
    },
    {
      "uri": "textures/LP_zlozone_lambert23SG1_metallicRoughness.png"
    },
    {
      "uri": "textures/LP_zlozone_lambert23SG1_emissive.jpeg"
    },
    {
      "uri": "textures/LP_zlozone_lambert23SG1_normal.png"
    },
    {
      "uri": "textures/LP_zlozone_lambert25SG1_baseColor.png"
    },
    {
      "uri": "textures/LP_zlozone_lambert25SG1_metallicRoughness.png"
    },
    {
      "uri": "textures/LP_zlozone_lambert25SG1_emissive.jpeg"
    },
    {
      "uri": "textures/LP_zlozone_lambert25SG1_normal.png"
    }
  ],
  "materials": [
    {
      "alphaMode": "BLEND",
      "doubleSided": true,
      "emissiveFactor": [
        1,
        1,
        1
      ],
      "emissiveTexture": {
        "index": 6,
        "texCoord": 0
      },
      "name": "LP_zlozone_lambert25SG1",
      "normalTexture": {
        "index": 7,
        "scale": 1,
        "texCoord": 0
      },
      "pbrMetallicRoughness": {
        "baseColorFactor": [
          0.33638951950000001,
          0.33638951950000001,
          0.33638951950000001,
          1
        ],
        "baseColorTexture": {
          "index": 4,
          "texCoord": 0
        },
        "metallicFactor": 1,
        "metallicRoughnessTexture": {
          "index": 5,
          "texCoord": 0
        },
        "roughnessFactor": 0.2395198171
      }
    },
    {
      "doubleSided": true,
      "emissiveFactor": [
        1,
        1,
        1
      ],
      "emissiveTexture": {
        "index": 2,
        "texCoord": 0
      },
      "name": "LP_zlozone_lambert23SG1",
      "normalTexture": {
        "index": 3,
        "scale": 1,
        "texCoord": 0
      },
      "occlusionTexture": {
        "index": 1,
        "strength": 1,
        "texCoord": 0
      },
      "pbrMetallicRoughness": {
        "baseColorFactor": [
          1,
          1,
          1,
          1
        ],
        "baseColorTexture": {
          "index": 0,
          "texCoord": 0
        },
        "metallicFactor": 1,
        "metallicRoughnessTexture": {
          "index": 1,
          "texCoord": 0
        },
        "roughnessFactor": 1
      }
    }
  ],
  "meshes": [
    {
      "name": "defaultMaterial",
      "primitives": [
        {
          "attributes": {
            "NORMAL": 1,
            "POSITION": 0,
            "TANGENT": 2,
            "TEXCOORD_0": 3
          },
          "indices": 4,
          "material": 1,
          "mode": 4
        }
      ]
    },
    {
      "name": "defaultMaterial",
      "primitives": [
        {
          "attributes": {
            "NORMAL": 6,
            "POSITION": 5,
            "TANGENT": 7,
            "TEXCOORD_0": 8
          },
          "indices": 9,
          "material": 0,
          "mode": 4
        }
      ]
    }
  ],
  "nodes": [
    {
      "children": [
        1
      ],
      "name": "RootNode (gltf orientation matrix)",
      "rotation": [
        -0.70710678118654746,
        -0,
        -0,
        0.70710678118654757
      ]
    },
    {
      "children": [
        2
      ],
      "name": "RootNode (model correction matrix)"
    },
    {
      "children": [
        3,
        5
      ],
      "matrix": [
        1,
        0,
        0,
        0,
        0,
        -4.3711390063094768e-08,
        0.999999999999999,
        0,
        0,
        -0.999999999999999,
        -4.3711390063094768e-08,
        0,
        0,
        0,
        0,
        1
      ],
      "name": "Collada visual scene group"
    },
    {
      "children": [
        4
      ],
      "name": "LP_zlozone:polySurface259"
    },
    {
      "mesh": 0,
      "name": "defaultMaterial"
    },
    {
      "children": [
        6
      ],
      "name": "LP_zlozone:polySurface259"
    },
    {
      "mesh": 1,
      "name": "defaultMaterial"
    }
  ],
  "samplers": [
    {
      "magFilter": 9729,
      "minFilter": 9987,
      "wrapS": 10497,
      "wrapT": 10497
    }
  ],
  "scene": 0,
  "scenes": [
    {
      "name": "OSG_Scene",
      "nodes": [
        0
      ]
    }
  ],
  "textures": [
    {
      "sampler": 0,
      "source": 0
    },
    {
      "sampler": 0,
      "source": 1
    },
    {
      "sampler": 0,
      "source": 2
    },
    {
      "sampler": 0,
      "source": 3
    },
    {
      "sampler": 0,
      "source": 4
    },
    {
      "sampler": 0,
      "source": 5
    },
    {
      "sampler": 0,
      "source": 6
    },
    {
      "sampler": 0,
      "source": 7
    }
  ]
}

